<svg width="18" height="11" viewBox="0 0 18 11" fill="none" xmlns="http://www.w3.org/2000/svg">
<g clip-path="url(#clip0_64_27)">
<path d="M5.9132 9.92987C6.16113 10.1787 6.16113 10.5645 5.9132 10.8134C5.66526 11.0622 5.28097 11.0622 5.03303 10.8134L0.185924 5.94797C0.185924 5.94797 0.161131 5.92308 0.148734 5.91064C0.148734 5.91064 0.148734 5.8982 0.136337 5.88575V5.87331V5.86087V5.84842C0.0867506 5.76132 0.0495605 5.64933 0.0495605 5.53734C0.0495605 5.42534 0.0743539 5.31335 0.136337 5.22625V5.21381V5.20136V5.18892C0.136337 5.18892 0.136337 5.17648 0.148734 5.16403C0.148734 5.16403 0.173527 5.13915 0.185924 5.1267L5.03303 0.186657C5.28097 -0.049768 5.66526 -0.049768 5.9132 0.186657C6.16113 0.435526 6.16113 0.821273 5.9132 1.07014L2.11981 4.87783H17.3801C17.7272 4.87783 18 5.15159 18 5.50001C18 5.84842 17.7272 6.12218 17.3801 6.12218H2.11981L5.92559 9.92987H5.9132Z" fill="#2C649F"/>
</g>
<defs>
<clipPath id="clip0_64_27">
<rect width="18" height="11" fill="white"/>
</clipPath>
</defs>
</svg>
